<svg id="Line-Expand" enable-background="new 0 0 64 64" height="512" viewBox="0 0 64 64" width="512" xmlns="http://www.w3.org/2000/svg"><path d="m2 19h42c.553 0 1-.448 1-1v-2c0-2.953-1.841-5.479-4.433-6.506.884-.902 1.433-2.134 1.433-3.494 0-2.757-2.243-5-5-5s-5 2.243-5 5c0 1.36.549 2.592 1.433 3.494-1.441.57-2.645 1.605-3.433 2.919-.789-1.314-1.993-2.349-3.433-2.919.884-.902 1.433-2.134 1.433-3.494 0-2.757-2.243-5-5-5s-5 2.243-5 5c0 1.36.549 2.592 1.433 3.494-1.441.57-2.645 1.605-3.433 2.919-.789-1.314-1.993-2.349-3.433-2.919.884-.902 1.433-2.134 1.433-3.494 0-2.757-2.243-5-5-5s-5 2.243-5 5c0 1.36.549 2.592 1.433 3.494-2.592 1.027-4.433 3.553-4.433 6.506v2c0 .552.447 1 1 1zm35-16c1.654 0 3 1.346 3 3s-1.346 3-3 3-3-1.346-3-3 1.346-3 3-3zm-1 8h2c2.757 0 5 2.243 5 5v1h-12v-1c0-2.757 2.243-5 5-5zm-13-8c1.654 0 3 1.346 3 3s-1.346 3-3 3-3-1.346-3-3 1.346-3 3-3zm-1 8h2c2.757 0 5 2.243 5 5v1h-12v-1c0-2.757 2.243-5 5-5zm-13-8c1.654 0 3 1.346 3 3s-1.346 3-3 3-3-1.346-3-3 1.346-3 3-3zm-6 13c0-2.757 2.243-5 5-5h2c2.757 0 5 2.243 5 5v1h-12z"/><path d="m27 44v-3.489l17.586-12.701c.26-.187.414-.489.414-.81v-5c0-.552-.447-1-1-1h-42c-.553 0-1 .448-1 1v5c0 .321.154.623.414.811l17.586 12.7v6.489c0 .347.18.668.475.851.16.099.342.149.525.149.153 0 .306-.035.447-.105l6-3c.339-.17.553-.516.553-.895zm-2-4v3.382l-4 2v-5.382c0-.321-.154-.623-.414-.811l-15.493-11.189h5.907v-2h-8v-3h40v3.489l-17.586 12.7c-.26.188-.414.49-.414.811z"/><path d="m13 26h2v2h-2z"/><path d="m17 26h2v2h-2z"/><path d="m21 26h2v2h-2z"/><path d="m53 43c-5.514 0-10 4.486-10 10s4.486 10 10 10 10-4.486 10-10-4.486-10-10-10zm0 18c-4.411 0-8-3.589-8-8s3.589-8 8-8 8 3.589 8 8-3.589 8-8 8z"/><path d="m39.707 49.293-1.414 1.414 1.293 1.293h-11.586c-1.654 0-3-1.346-3-3v-2h-2v2c0 2.757 2.243 5 5 5h11.586l-1.293 1.293 1.414 1.414 3-3c.195-.195.293-.451.293-.707s-.098-.512-.293-.707z"/><path d="m53 50c.552 0 1 .449 1 1h2c0-1.302-.839-2.402-2-2.816v-1.184h-2v1.184c-1.161.414-2 1.514-2 2.816 0 1.654 1.346 3 3 3 .552 0 1 .449 1 1s-.448 1-1 1-1-.449-1-1h-2c0 1.302.839 2.402 2 2.816v1.184h2v-1.184c1.161-.414 2-1.514 2-2.816 0-1.654-1.346-3-3-3-.552 0-1-.449-1-1s.448-1 1-1z"/></svg>